<svg width="920" height="220" viewBox="0 0 920 220" fill="none" xmlns="http://www.w3.org/2000/svg">
  <defs>
    <linearGradient id="bg" x1="0" y1="0" x2="1" y2="1">
      <stop offset="0%" stop-color="#0A3A67"/>
      <stop offset="100%" stop-color="#127E6A"/>
    </linearGradient>
    <linearGradient id="metal" x1="0" y1="0" x2="1" y2="1">
      <stop offset="0%" stop-color="#F8FBFF"/>
      <stop offset="100%" stop-color="#D3DFEC"/>
    </linearGradient>
  </defs>
  <rect x="0" y="0" width="920" height="220" rx="24" fill="url(#bg)"/>

  <g transform="translate(34,30)">
    <rect x="18" y="40" width="180" height="112" rx="14" fill="#0C2237" stroke="#8AD6FF" stroke-width="3"/>
    <rect x="18" y="22" width="180" height="34" rx="10" fill="#123A5A" stroke="#8AD6FF" stroke-width="3"/>
    <rect x="38" y="56" width="140" height="84" rx="8" fill="url(#metal)"/>
    <path d="M120 73L120 124" stroke="#0E5F8E" stroke-width="10" stroke-linecap="round"/>
    <path d="M86 105L120 131L154 105" stroke="#0E5F8E" stroke-width="10" stroke-linecap="round" stroke-linejoin="round"/>

    <path d="M27 97C16 72 30 41 56 31" stroke="#5FFFC1" stroke-width="7" stroke-linecap="round"/>
    <path d="M49 29L57 16L64 31" fill="#5FFFC1"/>
    <path d="M191 96C203 121 188 151 161 161" stroke="#5FFFC1" stroke-width="7" stroke-linecap="round"/>
    <path d="M168 163L161 176L153 161" fill="#5FFFC1"/>
  </g>

  <g fill="#F4FBFF">
    <text x="280" y="105" font-family="Segoe UI, Tahoma, sans-serif" font-weight="800" font-size="64" letter-spacing="1">CabinetForge</text>
    <text x="282" y="145" font-family="Segoe UI, Tahoma, sans-serif" font-weight="500" font-size="24" fill="#BEE8FF">CAB Editing, Repacking, and Signature Visibility</text>
  </g>
</svg>
